<mxfile host="app.diagrams.net" agent="Mozilla/5.0 (Windows NT 10.0; Win64; x64) AppleWebKit/537.36 (KHTML, like Gecko) Chrome/127.0.0.0 Safari/537.36" version="24.7.6">
  <diagram name="Página-1" id="5TjAUcCp3awlB1xya7Ci">
    <mxGraphModel dx="1434" dy="746" grid="1" gridSize="10" guides="1" tooltips="1" connect="1" arrows="1" fold="1" page="1" pageScale="1" pageWidth="827" pageHeight="1169" math="0" shadow="0">
      <root>
        <mxCell id="0" />
        <mxCell id="1" parent="0" />
        <mxCell id="l9A4rghapvNYg3j4PMBW-10" value="" style="edgeStyle=orthogonalEdgeStyle;rounded=0;orthogonalLoop=1;jettySize=auto;html=1;" edge="1" parent="1" source="l9A4rghapvNYg3j4PMBW-1" target="l9A4rghapvNYg3j4PMBW-3">
          <mxGeometry relative="1" as="geometry" />
        </mxCell>
        <mxCell id="l9A4rghapvNYg3j4PMBW-1" value="&lt;font style=&quot;font-size: 17px;&quot;&gt;Início&lt;/font&gt;" style="ellipse;whiteSpace=wrap;html=1;" vertex="1" parent="1">
          <mxGeometry x="302" y="40" width="116" height="90" as="geometry" />
        </mxCell>
        <mxCell id="l9A4rghapvNYg3j4PMBW-15" style="edgeStyle=orthogonalEdgeStyle;rounded=0;orthogonalLoop=1;jettySize=auto;html=1;" edge="1" parent="1" source="l9A4rghapvNYg3j4PMBW-2" target="l9A4rghapvNYg3j4PMBW-5">
          <mxGeometry relative="1" as="geometry" />
        </mxCell>
        <mxCell id="l9A4rghapvNYg3j4PMBW-2" value="&lt;font style=&quot;font-size: 17px;&quot;&gt;nome&lt;/font&gt;" style="shape=manualInput;whiteSpace=wrap;html=1;" vertex="1" parent="1">
          <mxGeometry x="262.5" y="300" width="175" height="90" as="geometry" />
        </mxCell>
        <mxCell id="l9A4rghapvNYg3j4PMBW-3" value="&lt;font style=&quot;font-size: 17px;&quot;&gt;&quot;Digite seu nome&quot;&lt;/font&gt;" style="shape=display;whiteSpace=wrap;html=1;" vertex="1" parent="1">
          <mxGeometry x="237" y="170" width="246" height="90" as="geometry" />
        </mxCell>
        <mxCell id="l9A4rghapvNYg3j4PMBW-16" style="edgeStyle=orthogonalEdgeStyle;rounded=0;orthogonalLoop=1;jettySize=auto;html=1;entryX=0.5;entryY=0;entryDx=0;entryDy=0;" edge="1" parent="1" source="l9A4rghapvNYg3j4PMBW-5" target="l9A4rghapvNYg3j4PMBW-6">
          <mxGeometry relative="1" as="geometry" />
        </mxCell>
        <mxCell id="l9A4rghapvNYg3j4PMBW-5" value="&lt;font style=&quot;font-size: 17px;&quot;&gt;&quot;Seu nome&quot;, nome&lt;/font&gt;" style="shape=display;whiteSpace=wrap;html=1;" vertex="1" parent="1">
          <mxGeometry x="227" y="453" width="246" height="90" as="geometry" />
        </mxCell>
        <mxCell id="l9A4rghapvNYg3j4PMBW-6" value="&lt;font style=&quot;font-size: 17px;&quot;&gt;Fim&lt;/font&gt;" style="ellipse;whiteSpace=wrap;html=1;" vertex="1" parent="1">
          <mxGeometry x="300" y="610" width="100" height="70" as="geometry" />
        </mxCell>
        <mxCell id="l9A4rghapvNYg3j4PMBW-11" style="edgeStyle=orthogonalEdgeStyle;rounded=0;orthogonalLoop=1;jettySize=auto;html=1;entryX=0.557;entryY=0.111;entryDx=0;entryDy=0;entryPerimeter=0;" edge="1" parent="1" source="l9A4rghapvNYg3j4PMBW-3" target="l9A4rghapvNYg3j4PMBW-2">
          <mxGeometry relative="1" as="geometry" />
        </mxCell>
      </root>
    </mxGraphModel>
  </diagram>
</mxfile>
